# xmcd
#
# Track frame offsets:
#	150
#	16267
#	34629
#	74000
#	97196
#	140457
#	157578
#	180548
#	194365
#	218008
#	236938
#	258088
#	287313
#	304889
#
# Disc length: 4721 seconds
#
# Revision: 0
# Processed by: cddbd v1.5.2PL0 Copyright (c) Steve Scherf et al.
# Submitted via: EZCDAudioConverter 1.3.4.1
#
DISCID=be126f0e
DTITLE=Various Artist - Afro-Beat Airways
DYEAR=1900
DGENRE=
TTITLE0=Uppers International - Dankasa
TTITLE1=Apagya Show Band - Ma Nserew Me
TTITLE2=K. Frimpong and His Cubano Fiestas - Me Yee Owu Den
TTITLE3=Marijata - Break Through
TTITLE4=Ebo Taylor and The Sweet Beans - Odofo Nyi Akyiri Biara
TTITLE5=Orchestre Abass - Awula Bo Fee Ene
TTITLE6=Itadi - Live In Other World
TTITLE7=Apagya Show Band - Mumunde
TTITLE8=Rob (With Mag-2) - More
TTITLE9=Cos-Ber-Zam - Ne Noya
TTITLE10=De Frank Professionals - Afe Ato Yen Bio
TTITLE11=African Brothers Band - Ngyegye No So
TTITLE12=Uppers International - Neriba Lanchina
TTITLE13=Ebo Taylor and The Pelicans - Come Along
EXTD=
EXTT0=
EXTT1=
EXTT2=
EXTT3=
EXTT4=
EXTT5=
EXTT6=
EXTT7=
EXTT8=
EXTT9=
EXTT10=
EXTT11=
EXTT12=
EXTT13=
PLAYORDER=
